<svg width="12" height="9" viewBox="0 0 12 9" fill="none" xmlns="http://www.w3.org/2000/svg">
<path d="M6.00003 8.24999C5.83072 8.24994 5.66317 8.21562 5.50747 8.14911C5.35176 8.08261 5.21113 7.98528 5.09403 7.86299L0.374028 3.00199C0.134035 2.75066 0.00012207 2.41651 0.00012207 2.06899C0.00012207 1.72148 0.134035 1.38733 0.374028 1.13599C0.49108 1.01382 0.631646 0.916593 0.787263 0.850173C0.94288 0.783753 1.11033 0.749512 1.27953 0.749512C1.44873 0.749512 1.61618 0.783753 1.77179 0.850173C1.92741 0.916593 2.06798 1.01382 2.18503 1.13599L6.00003 5.06599L9.81403 1.13699C9.93115 1.01494 10.0717 0.917832 10.2274 0.851493C10.383 0.785154 10.5504 0.750957 10.7195 0.750957C10.8887 0.750957 11.0561 0.785154 11.2117 0.851493C11.3673 0.917832 11.5079 1.01494 11.625 1.13699C11.865 1.38833 11.9989 1.72248 11.9989 2.06999C11.9989 2.41751 11.865 2.75166 11.625 3.00299L6.90003 7.86299C6.78366 7.9846 6.64401 8.08153 6.48938 8.14802C6.33476 8.21451 6.16834 8.24919 6.00003 8.24999Z" fill="white"/>
</svg>
