<svg width="16" height="16" viewBox="0 0 16 16" fill="none" xmlns="http://www.w3.org/2000/svg">
<path fill-rule="evenodd" clip-rule="evenodd" d="M8.00009 4.13595e-06C6.09899 -0.00192809 4.25934 0.673218 2.81081 1.90445C1.36228 3.13569 0.399559 4.84253 0.0951703 6.7191C-0.209219 8.59568 0.164622 10.5193 1.1497 12.1453C2.13478 13.7713 3.6667 14.9933 5.47093 15.5924C5.87363 15.6661 6.01605 15.4156 6.01605 15.2044C6.01605 14.9933 6.01605 14.512 6.01605 13.8441C3.78155 14.3303 3.3101 12.7686 3.3101 12.7686C3.16186 12.2846 2.84693 11.8687 2.42121 11.5948C1.69929 11.1037 2.48014 11.1037 2.48014 11.1037C2.7332 11.1395 2.97481 11.2324 3.18668 11.3753C3.39854 11.5182 3.57509 11.7075 3.70298 11.9288C3.81164 12.1258 3.95814 12.2995 4.13406 12.4397C4.30999 12.58 4.51189 12.6841 4.72817 12.7462C4.94444 12.8083 5.17085 12.827 5.39438 12.8013C5.61792 12.7757 5.83419 12.7061 6.03079 12.5967C6.06161 12.1927 6.23578 11.813 6.52188 11.5261C4.74411 11.3247 2.87793 10.6372 2.87793 7.5973C2.86572 6.80319 3.15937 6.03479 3.69807 5.4512C3.45814 4.76073 3.48618 4.00535 3.77664 3.33457C3.77664 3.33457 4.44945 3.11848 5.97676 4.1547C7.28829 3.79461 8.67261 3.79461 9.98413 4.1547C11.5114 3.11848 12.1793 3.33457 12.1793 3.33457C12.4738 3.99825 12.5089 4.74821 12.2776 5.43647C12.8163 6.02006 13.1099 6.78845 13.0977 7.58257C13.0977 10.6568 11.2266 11.3297 9.44392 11.5114C9.63507 11.7035 9.78268 11.9345 9.87673 12.1887C9.97079 12.4429 10.0091 12.7144 9.98904 12.9847C9.98904 14.0553 9.98904 14.9196 9.98904 15.1799C9.98904 15.4402 10.1315 15.6415 10.5391 15.5629C12.3228 14.948 13.8317 13.7225 14.7994 12.1029C15.7671 10.4832 16.1312 8.57369 15.8274 6.7116C15.5236 4.84951 14.5715 3.15471 13.1392 1.9266C11.707 0.698489 9.88673 0.0161069 8.00009 4.13595e-06Z" fill="#676767"/>
</svg>
