<svg width="16" height="12" viewBox="0 0 16 12" fill="none" xmlns="http://www.w3.org/2000/svg">
<path fill-rule="evenodd" clip-rule="evenodd" d="M0 1.75C0 0.783502 0.785035 0 1.75342 0H14.2466C15.215 0 16 0.783502 16 1.75V10.25C16 11.2165 15.215 12 14.2466 12H1.75342C0.785034 12 0 11.2165 0 10.25V1.75ZM1.75342 1.5C1.61508 1.5 1.50294 1.61193 1.50294 1.75V10.25C1.50294 10.3881 1.61508 10.5 1.75342 10.5H14.2466C14.3849 10.5 14.4971 10.3881 14.4971 10.25V1.75C14.4971 1.61193 14.3849 1.5 14.2466 1.5H1.75342Z" fill="#989898"/>
<path fill-rule="evenodd" clip-rule="evenodd" d="M2.45404 2.46967C2.74694 2.17678 3.22181 2.17678 3.51471 2.46967L7.98438 6.93934L12.454 2.46967C12.7469 2.17678 13.2218 2.17678 13.5147 2.46967C13.8076 2.76256 13.8076 3.23744 13.5147 3.53033L8.51471 8.53033C8.22181 8.82322 7.74694 8.82322 7.45404 8.53033L2.45404 3.53033C2.16115 3.23744 2.16115 2.76256 2.45404 2.46967Z" fill="#989898"/>
</svg>
