<svg width="16" height="16" viewBox="0 0 16 16" fill="none" xmlns="http://www.w3.org/2000/svg">
<path d="M0 8C0 12.4 3.6 16 8 16C12.4 16 16 12.4 16 8C16 3.6 12.4 0 8 0C3.6 0 0 3.6 0 8ZM5.93333 11.6H4.33333V5.73333H5.93333V11.6ZM5.13333 5.06667C4.6 5.06667 4.2 4.66667 4.2 4.13333C4.2 3.6 4.6 3.2 5.13333 3.2C5.66667 3.2 6.06667 3.6 6.06667 4.13333C6.06667 4.66667 5.66667 5.06667 5.13333 5.06667ZM12.2667 11.6H10.6667V8.6C10.6667 6.8 8.53333 6.93333 8.53333 8.6V11.6H6.93333V5.73333H8.53333V6.66667C9.26667 5.26667 12.2667 5.2 12.2667 8V11.6Z" fill="#676767"/>
</svg>
