<svg id="Layer_1" data-name="Layer 1" xmlns="http://www.w3.org/2000/svg" viewBox="0 0 16 16"><path d="M16,8A8,8,0,1,1,8,0,8,8,0,0,1,16,8ZM11.58,6.26C11.58,8.92,9.73,12,6.33,12a4.87,4.87,0,0,1-2.83-.91,3.25,3.25,0,0,0,.44,0,3.5,3.5,0,0,0,2.29-.86,1.74,1.74,0,0,1-1.06-.4,2,2,0,0,1-.66-1,1.79,1.79,0,0,0,.83,0,1.83,1.83,0,0,1-1.06-.7,2.13,2.13,0,0,1-.42-1.28v0a1.79,1.79,0,0,0,.84.25,2.09,2.09,0,0,1-.78-1.23,2.2,2.2,0,0,1,.21-1.47,5.25,5.25,0,0,0,1.69,1.5,5,5,0,0,0,2.11.61,2.19,2.19,0,0,1,.12-1.29,1.9,1.9,0,0,1,.81-1A1.66,1.66,0,0,1,10,4a1.78,1.78,0,0,1,1.05.61,3.64,3.64,0,0,0,1.17-.49,2.06,2.06,0,0,1-.81,1.12A3.61,3.61,0,0,0,12.5,5a4,4,0,0,1-.92,1Z" style="fill:#676767;fill-rule:evenodd"/></svg>