<svg id="Layer_1" data-name="Layer 1" xmlns="http://www.w3.org/2000/svg" xmlns:xlink="http://www.w3.org/1999/xlink" viewBox="0 0 455.44 428.38"><defs><style>.cls-1,.cls-10,.cls-12,.cls-13,.cls-17,.cls-20,.cls-21,.cls-22,.cls-23,.cls-26,.cls-27,.cls-29,.cls-7,.cls-9{fill:none;}.cls-2{fill:#0bb9d1;}.cls-3{fill:#cceaf1;}.cls-4{fill:#005e6a;}.cls-5{fill:#018b9d;}.cls-6{fill:#6bd5e4;}.cls-20,.cls-7,.cls-9{stroke:#000;}.cls-10,.cls-12,.cls-13,.cls-17,.cls-20,.cls-21,.cls-22,.cls-23,.cls-26,.cls-27,.cls-29,.cls-7,.cls-9{stroke-miterlimit:10;}.cls-7{stroke-width:3.01px;}.cls-8{clip-path:url(#clip-path);}.cls-9{stroke-width:2.75px;}.cls-10,.cls-12{stroke:#005e6a;}.cls-10{stroke-width:1.38px;}.cls-11{fill:#676767;}.cls-12{stroke-width:1.43px;}.cls-13,.cls-26,.cls-27{stroke:#0bb9d1;}.cls-13,.cls-21,.cls-22{stroke-width:1.53px;}.cls-14{clip-path:url(#clip-path-2);}.cls-15{fill:#fff;}.cls-16{clip-path:url(#clip-path-3);}.cls-17,.cls-22{stroke:#6bd5e4;}.cls-17,.cls-26{stroke-width:5.36px;}.cls-18{fill:#f28fbb;}.cls-19{fill:#ed4c96;}.cls-20{stroke-width:6.1px;}.cls-21{stroke:#018b9d;}.cls-23,.cls-29{stroke:#fff;}.cls-23{stroke-width:6.13px;}.cls-24{clip-path:url(#clip-path-4);}.cls-25{fill:#cbcbca;}.cls-27{stroke-width:5.97px;}.cls-28{clip-path:url(#clip-path-5);}.cls-29{stroke-width:3.49px;}.cls-30{clip-path:url(#clip-path-6);}</style><clipPath id="clip-path"><polygon class="cls-1" points="150.84 362.1 138.64 366.7 135.91 402.97 148.42 389.44 150.84 362.1"/></clipPath><clipPath id="clip-path-2"><path class="cls-1" d="M59.2,33.18h0c3.17-17.12,25.31-22.1,35.5-8l49.19,68.13-14.77,20.74h0A58.88,58.88,0,0,1,103.45,111,69.43,69.43,0,0,1,59.2,33.18Z"/></clipPath><clipPath id="clip-path-3"><path class="cls-2" d="M99.77,123.41h11.93a25.87,25.87,0,0,1,25.87,25.87v39.4a28.39,28.39,0,0,1-28.39,28.39h-6.89a28.39,28.39,0,0,1-28.39-28.39v-39.4a25.87,25.87,0,0,1,25.87-25.87Z" transform="translate(-64.49 275.97) rotate(-90)"/></clipPath><clipPath id="clip-path-4"><path class="cls-1" d="M139.85,162.87v8.92a24.46,24.46,0,0,1-24.47,24.47H83.46c-13.56,0-24.55,11.23-24.55-24.54v-8.78A24.55,24.55,0,0,1,83.46,138.4h31.92A24.46,24.46,0,0,1,139.85,162.87Z"/></clipPath><clipPath id="clip-path-5"><path class="cls-1" d="M190.67,7.68h0c10.62-13.73,32.52-8,35.12,9.11l12.54,82.83-22.55,11.66h0A58.85,58.85,0,0,1,194.45,96.8,69.23,69.23,0,0,1,190.67,7.68Z"/></clipPath><clipPath id="clip-path-6"><path class="cls-1" d="M139.85,162.87v8.92c0,13.52-10.95,3.77-24.47,3.77H83.46c-13.56,0-24.55-4.3-24.55-8.78v-3.84A24.55,24.55,0,0,1,83.46,138.4h31.92A24.46,24.46,0,0,1,139.85,162.87Z"/></clipPath></defs><polygon class="cls-3" points="148.42 389.44 149.94 388.57 152.18 363.67 150.42 366.83 148.42 389.44"/><polygon class="cls-4" points="280.82 410.79 287.76 407.96 292.48 396.82 329.38 350.8 372.25 304.56 359.69 297.41 287.76 393.62 280.82 410.79"/><circle class="cls-4" cx="321.19" cy="336.81" r="19.01"/><path class="cls-5" d="M287.76,395.62l-6.94,15.17-12.43,2L245.33,402.2l3-6.63A16.36,16.36,0,0,1,270,387.51"/><polygon class="cls-6" points="280.82 410.79 248.37 395.57 245.33 402.2 268.39 412.75 280.82 410.79"/><circle class="cls-4" cx="282.22" cy="393.18" r="8.09"/><polyline class="cls-5" points="347.51 219.87 303.64 324.46 328.81 343.75 403.02 253.48"/><polyline class="cls-5" points="286.38 396.3 330.89 338.86 296.59 330.28 273.65 386.32"/><circle class="cls-5" cx="280.02" cy="391.3" r="8.09"/><circle cx="280.02" cy="391.3" r="2.72"/><circle class="cls-4" cx="317.72" cy="333.33" r="19.01"/><circle class="cls-5" cx="315.03" cy="330.65" r="19.01"/><circle class="cls-4" cx="315.03" cy="330.65" r="9.8"/><circle cx="315.03" cy="330.65" r="4.26"/><path class="cls-7" d="M336.14,338.86A17.83,17.83,0,0,1,326.07,351"/><polygon class="cls-4" points="131.41 422.79 134.44 417.25 135.91 402.97 133.48 405.46 131.41 422.79"/><circle class="cls-4" cx="140.26" cy="350.99" r="18.9"/><path class="cls-2" d="M100.23,408.79l2.39-3a20.26,20.26,0,0,1,15-7.53l10-.38-9.51,11.67Z"/><polyline class="cls-5" points="133.48 405.46 120.09 403.78 122.07 337.72 142.1 284.67 170.87 279.19 150.31 363.28 148.42 389.44 135.91 402.97 133.48 405.46"/><polygon class="cls-4" points="155.46 341.62 161.32 319.07 163.77 321.16 157.84 345.03 155.46 341.62"/><path class="cls-5" d="M133.48,406.24l-2.07,16.55-11.28,5.59L95,425.23l.91-7.23a16.34,16.34,0,0,1,18.25-14.19"/><polygon class="cls-6" points="150.84 362.1 138.64 366.7 135.91 402.97 148.42 389.44 150.84 362.1"/><circle class="cls-4" cx="126.76" cy="407.03" r="6.75"/><circle class="cls-5" cx="126.78" cy="404.62" r="6.75"/><circle cx="126.78" cy="404.62" r="2.41"/><g class="cls-8"><line class="cls-9" x1="134.73" y1="402.43" x2="157.51" y2="377.2"/><line class="cls-9" x1="132.14" y1="395.58" x2="154.93" y2="370.35"/><line class="cls-9" x1="129.56" y1="388.72" x2="152.34" y2="363.49"/></g><circle class="cls-4" cx="140.11" cy="350.99" r="18.9"/><circle class="cls-5" cx="137" cy="349.27" r="18.9"/><circle class="cls-4" cx="137" cy="349.27" r="9.74"/><circle cx="137" cy="349.27" r="4.23"/><path class="cls-6" d="M387.17,215.91l15.54-73a59,59,0,0,1,33-41.28L448.85,96l-6-1.41a42.77,42.77,0,0,0-24.52,1.22c-17.52,6.46-30.71,21-35.51,40L369.36,189.4A30.29,30.29,0,0,1,350,210.58l-.6.21"/><circle class="cls-6" cx="358.92" cy="345.3" r="17.64"/><polygon class="cls-6" points="361.3 362.96 404.24 394.88 405.91 390.19 367.02 362.35 361.3 362.96"/><path class="cls-6" d="M408.61,380.25l15.17,6.93-2.44,35.49h-6.15l-6.63-3A16.34,16.34,0,0,1,400.5,398"/><path class="cls-2" d="M414.79,380.25,430,387.18l2,12.44-10.55,23.05-6.62-3A16.35,16.35,0,0,1,406.67,398"/><polyline class="cls-2" points="325.12 253.3 349.95 348.09 379.82 340.43 402.06 248.86"/><circle class="cls-5" cx="413.95" cy="387.89" r="7.15"/><polyline class="cls-2" points="418.55 381.97 382.42 335.55 360.28 358.8 408.05 391.66"/><circle class="cls-2" cx="411.4" cy="385.34" r="7.15"/><circle class="cls-6" cx="362.45" cy="345.31" r="17.64"/><circle cx="411.4" cy="385.34" r="2.55"/><circle class="cls-2" cx="365.93" cy="341.83" r="17.64"/><circle class="cls-4" cx="365.93" cy="341.83" r="9.09"/><polygon class="cls-6" points="327.21 263.16 347.59 336.12 342.95 340.1 323.04 265.76 327.21 263.16"/><circle cx="365.93" cy="341.83" r="3.95"/><path class="cls-7" d="M353.33,358.26a17.81,17.81,0,0,1-8.57-13.21"/><polyline class="cls-2" points="192.55 185.53 372.9 208.46 372.87 311.77 192.55 311.77"/><circle class="cls-2" cx="190.52" cy="235.77" r="59.17"/><circle class="cls-2" cx="171.17" cy="288.76" r="34.72"/><circle class="cls-4" cx="171.17" cy="288.76" r="21.23"/><circle cx="171.17" cy="288.76" r="7.58"/><rect x="126.79" y="162.27" width="89.98" height="12.52"/><rect class="cls-4" x="126.79" y="162.27" width="89.98" height="2.85"/><circle class="cls-6" cx="159.38" cy="250.26" r="2.56"/><circle class="cls-4" cx="159.38" cy="250.26" r="1.19"/><rect class="cls-3" x="121.1" y="169.1" width="5.69" height="5.69"/><circle class="cls-4" cx="373.96" cy="259.65" r="35.15"/><circle cx="373.96" cy="259.65" r="12.55"/><path class="cls-5" d="M414.12,264.46a51.84,51.84,0,0,1-51.85,51.85c-28.64,0-59-13.88-59-42.51s30.34-61.19,59-61.19A51.84,51.84,0,0,1,414.12,264.46Z"/><circle class="cls-2" cx="359.21" cy="260.31" r="51.85"/><circle class="cls-5" cx="359.21" cy="260.31" r="39.81"/><circle class="cls-4" cx="359.68" cy="259.69" r="33.17"/><circle cx="359.68" cy="259.69" r="11.84"/><path class="cls-6" d="M359.21,218.11a42.2,42.2,0,0,1,0,84.4"/><path d="M302.09,211.36c0,21.83-46.7,39.53-104.31,39.53S93.46,233.19,93.46,211.36v.45c0-37.06,0-67.1,104.32-67.1,65.51,0,104.31,30,104.31,67.1Z"/><path d="M164.25,330c-11.25-3.59-22.6-12.55-36.06-9.85a6.61,6.61,0,0,1-7.9-5.34l-.1-66L268.65,224.5s50.42,91,13.57,94c-26.52,2.12-89,5.06-103.46,5C172.21,323.46,168.33,331.27,164.25,330Z"/><path d="M223.86,320.73l68.8-2.65a12,12,0,0,0,10.24-6.64l21.19-111.26a5.59,5.59,0,0,0-5-6.63l-40.23-3.43Z"/><polygon points="160.34 341 123.21 334.72 129.24 312.2 166.96 322.3 160.34 341"/><line class="cls-10" x1="129.33" y1="321.63" x2="126.6" y2="335.69"/><line class="cls-10" x1="133.33" y1="322.28" x2="130.59" y2="336.34"/><line class="cls-10" x1="137.32" y1="322.93" x2="134.58" y2="336.99"/><line class="cls-10" x1="141.31" y1="323.59" x2="138.57" y2="337.65"/><line class="cls-10" x1="145.3" y1="324.24" x2="142.57" y2="338.3"/><line class="cls-10" x1="149.3" y1="324.89" x2="146.56" y2="338.95"/><line class="cls-10" x1="153.29" y1="325.55" x2="151.07" y2="339.09"/><line class="cls-10" x1="157.28" y1="326.2" x2="154.54" y2="340.26"/><line class="cls-10" x1="161.27" y1="326.85" x2="158.54" y2="340.91"/><polygon points="297.05 309.92 331.42 317.8 356.36 203.23 322.71 196.23 297.05 309.92"/><path class="cls-11" d="M327.55,197.08s-.67,7-1.77,13.89l27.58,6.33,3-14.07Z"/><line class="cls-12" x1="304.19" y1="310.24" x2="331.37" y2="316.15"/><line class="cls-12" x1="332.23" y1="312.2" x2="305.05" y2="306.29"/><line class="cls-12" x1="305.91" y1="302.34" x2="333.09" y2="308.25"/><line class="cls-12" x1="306.77" y1="298.38" x2="333.95" y2="304.29"/><line class="cls-12" x1="307.63" y1="294.43" x2="334.81" y2="300.34"/><line class="cls-12" x1="308.49" y1="290.48" x2="335.67" y2="296.39"/><line class="cls-12" x1="309.35" y1="286.52" x2="336.53" y2="292.43"/><line class="cls-12" x1="337.77" y1="288.61" x2="310.59" y2="282.7"/><line class="cls-12" x1="311.45" y1="278.75" x2="338.63" y2="284.66"/><line class="cls-12" x1="312.31" y1="274.79" x2="339.48" y2="280.7"/><line class="cls-12" x1="313.17" y1="270.84" x2="340.34" y2="276.75"/><line class="cls-12" x1="314.03" y1="266.89" x2="341.2" y2="272.8"/><line class="cls-12" x1="314.89" y1="262.93" x2="342.06" y2="268.84"/><line class="cls-12" x1="315.75" y1="258.98" x2="342.92" y2="264.89"/><line class="cls-12" x1="316.61" y1="255.03" x2="343.78" y2="260.94"/><line class="cls-12" x1="317.47" y1="251.07" x2="344.64" y2="256.98"/><line class="cls-12" x1="318.41" y1="246.73" x2="345.59" y2="252.64"/><line class="cls-12" x1="319.27" y1="242.78" x2="346.45" y2="248.69"/><line class="cls-12" x1="320.13" y1="238.82" x2="347.31" y2="244.73"/><line class="cls-12" x1="320.99" y1="234.87" x2="348.17" y2="240.78"/><line class="cls-12" x1="321.85" y1="230.92" x2="349.03" y2="236.83"/><line class="cls-12" x1="322.71" y1="226.96" x2="349.89" y2="232.87"/><line class="cls-12" x1="323.57" y1="223.01" x2="350.75" y2="228.92"/><line class="cls-12" x1="324.43" y1="219.06" x2="351.61" y2="224.97"/><line class="cls-12" x1="325.29" y1="215.1" x2="352.46" y2="221.01"/><line class="cls-12" x1="325.78" y1="210.97" x2="352.96" y2="216.88"/><line class="cls-13" x1="326.64" y1="207.02" x2="353.82" y2="212.93"/><line class="cls-13" x1="327.5" y1="203.06" x2="354.68" y2="208.97"/><line class="cls-13" x1="328.36" y1="199.11" x2="355.54" y2="205.02"/><path class="cls-2" d="M394.23,227.22l16.24-84.29a59,59,0,0,1,33-41.28l11.56-6-6.21-1.56c-9.35-2.3-14.92-1.15-22.75,1.73-17.52,6.46-30.72,21-35.52,40L377.12,189.4a30.29,30.29,0,0,1-19.33,21.18l-.6.21"/><path class="cls-5" d="M268.06,160.3c0,25.15-52.24,50.76-97.76,51.21-47.17.46-87.75-22.68-87.75-48.74a92.72,92.72,0,0,1,92.72-92.72C226.48,70.05,268.06,109.09,268.06,160.3Z"/><path class="cls-5" d="M59.2,33.18h0c3.17-17.12,25.31-22.1,35.5-8l49.19,68.13-14.77,20.74h0A58.88,58.88,0,0,1,103.45,111,69.43,69.43,0,0,1,59.2,33.18Z"/><g class="cls-14"><path class="cls-4" d="M93.4,47h0c3.17-17.12,25.31-22.09,35.51-8l49.18,68.13L163.32,127.9h0a59,59,0,0,1-25.67-3.13A69.44,69.44,0,0,1,93.4,47Z"/><path class="cls-2" d="M133.71,96.79l9.65,7.64C160.69,94.87,90.52,10.81,76.84,1.3l-11.72,12-5.41,18s2.47-8.21,13.78-8.55c6-.18,19.37-1,52.57,62.83Z"/></g><path d="M143.21,96.79s13-23.29-10.51-44.69c0,0-39.44-39.82-54-35.12C101,23.91,143.21,96.79,143.21,96.79Z"/><path class="cls-2" d="M264.93,164.3c0,25.15-52.18,48.29-97.69,48.74-47.18.46-87.75-22.68-87.75-48.74,0-51.21,43.37-96,92.72-92.72C223.3,75,264.93,113.09,264.93,164.3Z"/><path class="cls-5" d="M125,83.51s12.12-3.58,23,1.82c7.61,3.76,19.32,4,21.57-4.18,4-14.6-13.32-10-25.44-6.33S125,83.51,125,83.51Z"/><path class="cls-2" d="M264.93,208.46,129.79,229.92S86.6,226.17,60.44,176.6c-21.27-40.31,204.49-19.33,204.49-19.33Z"/><path class="cls-5" d="M100.85,219s40.53,26,84.17-10.55,50.8,9.19,50.8,9.19l-97.7,37.82-35.4-21.19Z"/><path d="M139.41,283.27c-7.34-18.66-1.67-37.63,12.81-44.6,36-17.34,79.83-15.11,118.64-66.72L268,179.54l2.82,72.89Z"/><ellipse class="cls-5" cx="166.65" cy="127.75" rx="28.52" ry="36.35"/><ellipse class="cls-15" cx="160.54" cy="128.24" rx="28.52" ry="36.35"/><ellipse cx="154.09" cy="134.35" rx="8.57" ry="13.3"/><ellipse class="cls-15" cx="159.94" cy="128.31" rx="3.12" ry="4.84"/><ellipse class="cls-5" cx="93.81" cy="127.75" rx="28.52" ry="36.35"/><ellipse class="cls-15" cx="87.44" cy="128.24" rx="28.52" ry="36.35"/><ellipse cx="81.6" cy="134.35" rx="9.18" ry="13.3"/><ellipse class="cls-15" cx="87.86" cy="128.31" rx="3.34" ry="4.84"/><path d="M143.08,268.37c-3.07-26.46-12.79-29.68-22.89-36.6C106.11,222.14,90,212.61,90,212.61l.13,1.84a49.86,49.86,0,0,0,13.72,31.2,88.56,88.56,0,0,0,17.54,13.68Z"/><path class="cls-11" d="M139.34,251.85a80.9,80.9,0,0,0-31.48-24c-16.5-7-17.84-15.21-17.84-15.21L111.72,223S139.85,238.06,139.34,251.85Z"/><path class="cls-2" d="M99.77,123.41h11.93a25.87,25.87,0,0,1,25.87,25.87v39.4a28.39,28.39,0,0,1-28.39,28.39h-6.89a28.39,28.39,0,0,1-28.39-28.39v-39.4a25.87,25.87,0,0,1,25.87-25.87Z" transform="translate(-64.49 275.97) rotate(-90)"/><g class="cls-16"><path class="cls-5" d="M60.12,171.85c-35.78-17.47,11.56,30.21,25.82,30.21H126.5c14.4,0,26.07-13.66,26.07-30.51C152.57,171.55,123.94,216.58,60.12,171.85Z"/></g><line class="cls-17" x1="61.87" y1="171.76" x2="61.87" y2="226.57"/><line class="cls-17" x1="68.69" y1="171.76" x2="68.69" y2="226.57"/><line class="cls-17" x1="75.51" y1="171.76" x2="75.51" y2="226.57"/><line class="cls-17" x1="82.33" y1="171.76" x2="82.33" y2="226.57"/><line class="cls-17" x1="89.15" y1="171.76" x2="89.15" y2="226.57"/><line class="cls-17" x1="95.97" y1="171.76" x2="95.97" y2="226.57"/><line class="cls-17" x1="102.79" y1="171.76" x2="102.79" y2="226.57"/><line class="cls-17" x1="109.61" y1="171.76" x2="109.61" y2="226.57"/><line class="cls-17" x1="116.43" y1="171.76" x2="116.43" y2="226.57"/><line class="cls-17" x1="123.25" y1="171.76" x2="123.25" y2="226.57"/><line class="cls-17" x1="130.07" y1="171.76" x2="130.07" y2="226.57"/><line class="cls-17" x1="136.89" y1="226.57" x2="136.89" y2="171.76"/><path class="cls-6" d="M93.29,129.76h12.18a25.74,25.74,0,0,1,25.74,25.74V185a25.67,25.67,0,0,1-25.67,25.67H93.22A25.67,25.67,0,0,1,67.55,185V155.51a25.74,25.74,0,0,1,25.74-25.74Z" transform="translate(-70.85 269.61) rotate(-90)"/><path class="cls-18" d="M77.79,167.33v13.4a7.35,7.35,0,0,0,7.32,7.32h2.75a5.81,5.81,0,0,0,5.79-5.79V167.33Z"/><path class="cls-19" d="M80.55,167.33v12.79a8,8,0,0,0,7.92,7.93h0a8,8,0,0,0,7.93-7.93V167.33Z"/><path class="cls-20" d="M71,167.5h35.1a11.24,11.24,0,0,0,9.32-5l5.49-8.16"/><path class="cls-11" d="M139.34,251.85s13.4-9.41,21.2-11.48c17.31-4.6,47.84-9.2,47.84-9.2l-32.22-4.53S145.61,232.6,139.34,251.85Z"/><path class="cls-11" d="M268.06,160.3c30.15,22-44,91.25-94.2,67.35C209.56,224.1,270.47,175.6,268.06,160.3Z"/><circle class="cls-21" cx="127.42" cy="251.55" r="3.93"/><circle class="cls-21" cx="163.59" cy="251.55" r="3.93"/><circle class="cls-22" cx="126.71" cy="251.55" r="3.93"/><rect class="cls-2" x="126.06" y="294.18" width="2.93" height="7.23"/><rect class="cls-2" x="162.07" y="294.18" width="2.93" height="7.23"/><line class="cls-23" x1="126.71" y1="251.55" x2="126.71" y2="294.18"/><rect class="cls-6" x="125.25" y="294.18" width="2.93" height="7.23"/><circle class="cls-22" cx="162.73" cy="251.55" r="3.93"/><g class="cls-24"><path class="cls-3" d="M74.09,147.07C57.54,156,59.33,164.44,58.94,178.54c-.56,1.27-.4,1.2-.72.7-.1-.15.33-.55.3-.73-.94-4.93-1.44-10-2.38-14.93a53.22,53.22,0,0,1-1.35-12,17.92,17.92,0,0,1,4-11.18,20.11,20.11,0,0,1,6.86-4.78,44.49,44.49,0,0,1,11.69-3.53,68.65,68.65,0,0,1,15-.48,72.23,72.23,0,0,1,17.64,3c2.88.92,7.27.75,8.3,3.6C122.34,149.51,90,138.51,74.09,147.07Z"/></g><line class="cls-23" x1="162.73" y1="251.55" x2="162.73" y2="294.18"/><rect class="cls-6" x="161.26" y="294.18" width="2.93" height="7.23"/><path class="cls-5" d="M230,115.23c10.8-1.6,23.87,3.83,28.66,15.39,0,0-4.24-12.89-8.93-20.57-3.52-5.78-4-9.07-4-9.07l-8.28-3.65S219.16,116.82,230,115.23Z"/><rect x="76.1" y="138.08" width="24.75" height="12.97" rx="6.07"/><rect x="81.99" y="144.27" width="12.97" height="12.97" rx="4.4" transform="translate(239.23 62.28) rotate(90)"/><ellipse class="cls-15" cx="88.47" cy="139.93" rx="4.84" ry="1.51"/><rect class="cls-25" x="128.18" y="251.55" width="1.61" height="42.64"/><rect class="cls-25" x="164.19" y="251.55" width="1.61" height="42.64"/><path class="cls-15" d="M199.68,282.82a1.1,1.1,0,0,0-.71-.5,1,1,0,0,0,.53-.5,1.66,1.66,0,0,0,.2-.79,1.44,1.44,0,0,0-.48-1.14,2,2,0,0,0-1.33-.42h-2.61v5.86H198a2.07,2.07,0,0,0,1.39-.44,1.5,1.5,0,0,0,.5-1.18,1.54,1.54,0,0,0-.25-.89m-3.09-1v-1.2h1.1a.92.92,0,0,1,.57.15.55.55,0,0,1,.19.42.6.6,0,0,1-.2.46.85.85,0,0,1-.56.17Zm1.86,2.1a.87.87,0,0,1-.58.17h-1.28V283h1.31a.93.93,0,0,1,.55.14.46.46,0,0,1,.2.4.57.57,0,0,1-.2.44m8.64,1.38v-1.28h-2.61v-4.58h-1.31v5.86Zm-17.83-6a3.05,3.05,0,1,1-3,3,3.06,3.06,0,0,1,3-3h0m0,4.74a1.69,1.69,0,1,0-1.69-1.69h0a1.68,1.68,0,0,0,1.69,1.69m-5.92,1.24v-5.86H182v3.3l-2.54-3.3h-1v5.86h1.31v-3.21l2.52,3.21Z"/><ellipse class="cls-15" cx="215.44" cy="279.57" rx="0.55" ry="0.54"/><circle class="cls-15" cx="212.99" cy="279.56" r="0.67"/><circle class="cls-15" cx="215.45" cy="274.68" r="0.39"/><circle class="cls-15" cx="212.99" cy="274.68" r="0.45"/><circle class="cls-15" cx="210.54" cy="274.69" r="0.55"/><circle class="cls-15" cx="215.44" cy="277.14" r="0.45"/><ellipse class="cls-15" cx="213" cy="277.14" rx="0.55" ry="0.54"/><circle class="cls-15" cx="210.54" cy="277.14" r="0.67"/><path class="cls-15" d="M210.42,280.55a.74.74,0,0,1-1.47,0,.73.73,0,0,1,.73-.73h0A.73.73,0,0,1,210.42,280.55Zm-.7-2.2a2.24,2.24,0,0,0-.54,4.42l.56-.91h-.06a1.32,1.32,0,1,1,1.32-1.32,1.3,1.3,0,0,1-.17.64h0l-1,1.65a2.24,2.24,0,0,0-.11-4.48Z"/><path class="cls-11" d="M297.05,189.58s2.38,8.62,0,14.06l29.16,5.09,2-8.27A5.22,5.22,0,0,0,324,194.2Z"/><polygon class="cls-4" points="341.64 314.32 339.3 305.29 334.63 302.71 332.81 312.16 341.64 314.32"/><polygon class="cls-5" points="339.3 305.29 339.3 290.27 337.67 289.11 334.63 302.71 339.3 305.29"/><rect x="45.59" y="67.68" width="39.4" height="14.4"/><line class="cls-26" x1="186.2" y1="168.7" x2="186.2" y2="235.77"/><line class="cls-26" x1="193.02" y1="168.7" x2="193.02" y2="235.77"/><line class="cls-26" x1="199.84" y1="168.7" x2="199.84" y2="235.77"/><line class="cls-26" x1="206.66" y1="168.7" x2="206.66" y2="235.77"/><line class="cls-26" x1="213.48" y1="168.7" x2="213.48" y2="235.77"/><line class="cls-26" x1="220.3" y1="168.7" x2="220.3" y2="235.77"/><line class="cls-26" x1="227.12" y1="168.7" x2="227.12" y2="235.77"/><line class="cls-26" x1="233.94" y1="168.7" x2="233.94" y2="235.77"/><line class="cls-26" x1="240.76" y1="168.7" x2="240.76" y2="235.77"/><line class="cls-26" x1="247.58" y1="168.7" x2="247.58" y2="235.77"/><line class="cls-26" x1="254.4" y1="168.7" x2="254.4" y2="235.77"/><line class="cls-26" x1="261.22" y1="168.7" x2="261.22" y2="235.77"/><polygon class="cls-15" points="75.65 170.81 72.91 160.3 70.51 160.3 67.77 170.81 75.65 170.81"/><polygon class="cls-15" points="110.55 170.81 107.82 160.3 105.41 160.3 102.68 170.81 110.55 170.81"/><line class="cls-27" x1="385.43" y1="220.04" x2="429.51" y2="228.64"/><line class="cls-27" x1="386.85" y1="212.8" x2="430.92" y2="221.4"/><line class="cls-27" x1="388.26" y1="205.56" x2="432.33" y2="214.16"/><line class="cls-27" x1="389.67" y1="198.32" x2="433.74" y2="206.92"/><line class="cls-27" x1="391.09" y1="191.08" x2="435.16" y2="199.68"/><line class="cls-27" x1="392.5" y1="183.84" x2="436.57" y2="192.44"/><line class="cls-27" x1="393.91" y1="176.6" x2="437.98" y2="185.2"/><line class="cls-27" x1="395.32" y1="169.36" x2="439.4" y2="177.96"/><line class="cls-27" x1="396.74" y1="162.12" x2="440.81" y2="170.72"/><line class="cls-27" x1="398.15" y1="154.88" x2="442.22" y2="163.48"/><line class="cls-27" x1="399.56" y1="147.64" x2="443.64" y2="156.24"/><line class="cls-27" x1="400.98" y1="140.4" x2="445.05" y2="149"/><line class="cls-27" x1="402.39" y1="133.16" x2="446.46" y2="141.76"/><line class="cls-27" x1="403.8" y1="125.92" x2="447.88" y2="134.52"/><line class="cls-27" x1="405.22" y1="118.68" x2="449.29" y2="127.28"/><line class="cls-27" x1="406.63" y1="111.44" x2="450.7" y2="120.04"/><line class="cls-27" x1="424.43" y1="107.4" x2="452.11" y2="112.8"/><line class="cls-27" x1="425.84" y1="100.16" x2="453.53" y2="105.56"/><line class="cls-27" x1="443.24" y1="96.34" x2="454.94" y2="98.32"/><circle class="cls-5" cx="224.01" cy="102.38" r="14.17"/><path class="cls-2" d="M190.67,7.68h0c10.62-13.73,32.52-8,35.12,9.11l12.54,82.83-22.55,11.66h0A58.85,58.85,0,0,1,194.45,96.8,69.23,69.23,0,0,1,190.67,7.68Z"/><g class="cls-28"><path class="cls-5" d="M210.53,31.51h0c10.61-13.74,32.52-8.06,35.12,9.11l-7.32,66.24s-10.83,8.85-16.71,2.45C199.37,85.15,198.48,49.29,210.53,31.51Z"/><path class="cls-6" d="M230,102.38l1.43,11.25c20.56,0-1.1-111.65-8.77-127.16L206-8.5,192.08,5.16s11.07-3.31,16.82-.86,10.1,7.82,11,15.43Z"/></g><path d="M224,11l23.21,47c7.66,15.52,2.42,34.3-11.62,44.42H235"/><circle class="cls-2" cx="221.73" cy="99.46" r="14.17"/><circle class="cls-4" cx="221.73" cy="99.46" r="7.4"/><circle cx="221.73" cy="99.46" r="4"/><polygon class="cls-5" points="223.53 49.18 228.25 48.35 238.34 58.4 230.19 64.04 225.43 64.71 220.32 58.75 223.53 49.18"/><polygon class="cls-6" points="223.53 49.18 233.72 59.11 238.34 58.4 228.25 48.35 223.53 49.18"/><polygon class="cls-2" points="225.43 64.71 233.72 59.11 238.34 58.4 230.19 64.04 225.43 64.71"/><path class="cls-5" d="M143.91,362.1,2,352.05V212.19c0-14.85,7.73-44.94,36.32-44.94H175.09c-19.17,6.41-31.18,30.09-31.18,44.94Z"/><path class="cls-6" d="M141.92,362.1,0,352.05V212.19c0-14.85,7.73-44.94,36.32-44.94H173.1c-19.17,6.41-31.18,30.09-31.18,44.94Z"/><line class="cls-29" x1="23.82" y1="222.3" x2="118.77" y2="228.19"/><line class="cls-29" x1="23.82" y1="207.05" x2="118.77" y2="212.94"/><line class="cls-29" x1="23.82" y1="237.54" x2="118.77" y2="243.43"/><polygon class="cls-15" points="118.77 296.38 23.82 290.49 23.82 251.55 118.77 257.44 118.77 296.38"/><line class="cls-29" x1="23.82" y1="303.53" x2="118.77" y2="309.42"/><line class="cls-29" x1="23.82" y1="320.85" x2="118.77" y2="326.74"/><line class="cls-29" x1="29.06" y1="189.82" x2="82.19" y2="192.79"/><ellipse class="cls-2" cx="73.24" cy="177.29" rx="5.48" ry="2.74"/><ellipse class="cls-2" cx="114.68" cy="177.69" rx="5.48" ry="2.74"/><path class="cls-2" d="M141.6,166.73l8.62.05c-5.39,2.32-7.14,10.91-14.71,11.41H72.07a8.78,8.78,0,0,1-8.78-8.77h0a23.76,23.76,0,0,1,23.76-23.76h33.48C133.62,145.66,141.6,153.64,141.6,166.73Z"/><path d="M147.58,163.7s-5.1,11.86-14.71,11.86H69.43a8.78,8.78,0,0,1-8.77-8.78h0A23.75,23.75,0,0,1,84.41,143h33.48C131,143,147.58,150.6,147.58,163.7Z"/><path class="cls-2" d="M147.58,162.09h0c-4.6,7.2-9.89,10.84-14.71,10.84H69.43a8.77,8.77,0,0,1-8.77-8.77h0a23.75,23.75,0,0,1,23.75-23.75h33.48C131,140.41,147.58,149,147.58,162.09Z"/><path class="cls-6" d="M147.58,162.09s-3.69,8.82-16.45,8.82H67.69c-8,0-8.78.81-8.78-8.77h0a23.76,23.76,0,0,1,23.76-23.76h33.48C129.24,138.38,147.58,149,147.58,162.09Z"/><g class="cls-30"><path class="cls-3" d="M74.09,147.07C57.54,156,59,167,58.91,166.78c-.94-4.93-1.83,1.74-2.77-3.2a53.22,53.22,0,0,1-1.35-12,17.92,17.92,0,0,1,4-11.18,20.11,20.11,0,0,1,6.86-4.78,44.49,44.49,0,0,1,11.69-3.53,68.65,68.65,0,0,1,15-.48,72.23,72.23,0,0,1,17.64,3c2.88.92,7.27.75,8.3,3.6C122.34,149.51,90,138.51,74.09,147.07Z"/></g><rect x="76.1" y="138.08" width="24.75" height="12.97" rx="6.07"/><rect x="81.99" y="144.27" width="12.97" height="12.97" rx="4.4" transform="translate(239.23 62.28) rotate(90)"/><ellipse class="cls-15" cx="88.47" cy="139.93" rx="4.84" ry="1.51"/><ellipse cx="71.72" cy="177.49" rx="4.17" ry="1.46"/><ellipse cx="113.55" cy="177.49" rx="4.17" ry="1.46"/><path class="cls-15" d="M75.6,177.13l-2.7-10.35H70.5l-2.69,10.34a.23.23,0,0,0,.11.27h0a7.18,7.18,0,0,0,3.78,1.07h0a7.19,7.19,0,0,0,3.8-1.08h0A.24.24,0,0,0,75.6,177.13Z"/><path class="cls-15" d="M117.49,177.29l-2.74-10.51h-2.4l-2.74,10.51.16.1a7.18,7.18,0,0,0,3.78,1.07h0a7.19,7.19,0,0,0,3.8-1.08Z"/></svg>